HIERARCHY
ROOT root
{
	OFFSET 0.000000 0.000000 0.000000
	CHANNELS 6 Xposition Yposition Zposition Zrotation Yrotation Xrotation
	JOINT lhip
	{
		OFFSET 0.058581 -0.082280 -0.017664
		CHANNELS 3 Zrotation Yrotation Xrotation
		JOINT lknee
		{
			OFFSET 0.043451 -0.386469 0.008037
			CHANNELS 3 Zrotation Yrotation Xrotation
			JOINT lankle
			{
				OFFSET -0.014790 -0.426874 -0.037428
				CHANNELS 3 Zrotation Yrotation Xrotation
				JOINT ltoe
				{
					OFFSET 0.041054 -0.060286 0.122042
					CHANNELS 3 Zrotation Yrotation Xrotation
					End Site
					{
						OFFSET 0.000000 0.000000 0.000000
					}
				}
			}
		}
	}
	JOINT rhip
	{
		OFFSET -0.060310 -0.090513 -0.013543
		CHANNELS 3 Zrotation Yrotation Xrotation
		JOINT rknee
		{
			OFFSET -0.043257 -0.383688 -0.004843
			CHANNELS 3 Zrotation Yrotation Xrotation
			JOINT rankle
			{
				OFFSET 0.019056 -0.420046 -0.034562
				CHANNELS 3 Zrotation Yrotation Xrotation
				JOINT rtoe
				{
					OFFSET -0.034840 -0.062106 0.130323
					CHANNELS 3 Zrotation Yrotation Xrotation
					End Site
					{
						OFFSET 0.000000 0.000000 0.000000
					}
				}
			}
		}
	}
	JOINT lowerback
	{
		OFFSET 0.004439 0.124404 -0.038385
		CHANNELS 3 Zrotation Yrotation Xrotation
		JOINT upperback
		{
			OFFSET 0.004488 0.137956 0.026820
			CHANNELS 3 Zrotation Yrotation Xrotation
			JOINT chest
			{
				OFFSET -0.002265 0.056032 0.002855
				CHANNELS 3 Zrotation Yrotation Xrotation
				JOINT lowerneck
				{
					OFFSET -0.013390 0.211636 -0.033468
					CHANNELS 3 Zrotation Yrotation Xrotation
					JOINT upperneck
					{
						OFFSET 0.010113 0.088937 0.050410
						CHANNELS 3 Zrotation Yrotation Xrotation
						End Site
						{
							OFFSET 0.000000 0.000000 0.000000
						}
					}
				}
				JOINT lclavicle
				{
					OFFSET 0.071702 0.114000 -0.018898
					CHANNELS 3 Zrotation Yrotation Xrotation
					JOINT lshoulder
					{
						OFFSET 0.122921 0.045205 -0.019046
						CHANNELS 3 Zrotation Yrotation Xrotation
						JOINT lelbow
						{
							OFFSET 0.255332 -0.015649 -0.022946
							CHANNELS 3 Zrotation Yrotation Xrotation
							JOINT lwrist
							{
								OFFSET 0.265709 0.012698 -0.007375
								CHANNELS 3 Zrotation Yrotation Xrotation
								End Site
								{
									OFFSET 0.000000 0.000000 0.000000
								}
							}
						}
					}
				}
				JOINT rclavicle
				{
					OFFSET -0.082954 0.112472 -0.023707
					CHANNELS 3 Zrotation Yrotation Xrotation
					JOINT rshoulder
					{
						OFFSET -0.113228 0.046853 -0.008472
						CHANNELS 3 Zrotation Yrotation Xrotation
						JOINT relbow
						{
							OFFSET -0.260127 -0.014369 -0.031269
							CHANNELS 3 Zrotation Yrotation Xrotation
							JOINT rwrist
							{
								OFFSET -0.269108 0.006794 -0.006027
								CHANNELS 3 Zrotation Yrotation Xrotation
								End Site
								{
									OFFSET 0.000000 0.000000 0.000000
								}
							}
						}
					}
				}
			}
		}
	}
}
MOTION
Frames: 10
Frame Time: 0.033333
2.078802 0.251159 0.755079 57.185353 6.782503 85.894657 27.115568 27.693041 -47.561225 -12.395692 15.590294 68.597289 -2.004636 -1.619536 -20.288795 0.000000 -0.000000 0.000000 -28.467294 -10.019963 15.328008 1.206126 4.577600 36.629542 7.016392 -7.329887 -43.090272 0.000000 -0.000000 0.000000 -3.263803 7.401397 16.638299 5.956585 -11.459933 1.488379 2.481995 0.910023 -7.527380 -4.988545 16.245611 1.034097 7.860763 16.591323 3.883893 -7.441559 -33.485311 -9.040661 9.680867 -17.442805 -19.374363 -2.277883 -17.801897 -8.991140 16.365441 -6.362766 41.543507 16.928135 9.104763 6.031948 37.062268 -29.365970 17.587709 133.321935 70.051665 131.814668 6.523289 20.653775 -63.682262 
2.080906 0.250521 0.753485 57.160439 6.769635 85.923700 27.110539 27.699711 -47.728251 -12.462655 15.601092 69.028989 -1.873769 -1.414030 -20.645059 0.000000 -0.000000 0.000000 -28.543950 -9.941444 15.465063 1.173746 4.741627 36.548764 7.083154 -7.265697 -43.182810 0.000000 -0.000000 0.000000 -3.292174 7.445318 16.459741 5.970277 -11.504128 1.553889 2.441304 0.920232 -7.519178 -4.969174 16.233427 0.923333 7.840780 16.592639 3.842765 -7.312117 -33.446371 -9.067178 9.569536 -17.548217 -19.415537 -2.330206 -17.657801 -8.916598 16.533931 -6.388410 41.563569 16.891071 9.014607 5.992265 37.140835 -29.391163 17.569154 133.432264 70.031319 132.045140 6.527946 20.665784 -63.644454 
2.082442 0.250061 0.751883 57.179221 6.799401 85.987243 27.097072 27.673366 -47.998738 -12.434327 15.594397 69.462436 -1.833128 -1.278867 -20.884119 0.000000 -0.000000 0.000000 -28.542873 -9.895060 15.682263 1.182689 4.986550 36.262302 7.065483 -7.275738 -43.392186 0.000000 -0.000000 0.000000 -3.305412 7.473067 16.384661 6.012977 -11.604967 1.488213 2.448519 0.924763 -7.529434 -4.937958 16.225376 0.857931 7.876088 16.561068 3.894587 -7.204505 -33.526631 -9.100611 9.577044 -17.452879 -19.430884 -2.459878 -17.542837 -8.918470 16.578388 -6.498934 41.727531 16.815460 9.079927 5.987890 37.202899 -29.376712 17.544575 133.431475 70.019733 132.029856 6.496483 20.582874 -63.537711 
2.083956 0.249719 0.750499 57.059175 6.875590 85.972530 27.209472 27.812703 -48.068794 -12.371711 15.590616 69.841972 -1.795229 -1.310503 -21.124527 0.000000 -0.000000 0.000000 -28.547049 -9.842599 15.731016 1.161638 5.071013 36.221849 7.055440 -7.299028 -43.454206 0.000000 -0.000000 0.000000 -3.244046 7.483489 16.367270 6.022382 -11.572099 1.473438 2.464966 0.906731 -7.600416 -4.908560 16.179533 0.885432 7.877423 16.574563 3.999577 -7.286487 -33.586883 -9.039205 9.679359 -17.282246 -19.512624 -2.568012 -17.585364 -8.758173 16.319878 -6.467210 41.901328 16.857630 9.197950 6.076585 37.175348 -29.336837 17.483975 133.342893 70.058561 131.933054 6.572002 20.613567 -63.513270 
2.085183 0.249661 0.749370 57.007922 6.942064 86.003655 27.281813 27.927507 -48.172298 -12.365814 15.610083 70.131637 -1.739846 -1.347313 -21.337865 0.000000 -0.000000 0.000000 -28.626569 -9.849140 15.688224 1.187686 4.995582 36.320451 7.093911 -7.191759 -43.419600 0.000000 -0.000000 0.000000 -3.215616 7.467763 16.367520 6.059829 -11.564468 1.386606 2.487735 0.900482 -7.597938 -4.870731 16.153938 0.896563 7.866493 16.581405 4.085754 -7.241668 -33.570527 -9.026193 9.653338 -17.257006 -19.581185 -2.663434 -17.465983 -8.744583 16.177383 -6.452642 41.837653 16.854552 9.225799 6.086385 37.165899 -29.206723 17.442250 132.927045 70.065184 131.466900 6.627432 20.671101 -63.532437 
2.086213 0.249580 0.748481 56.984917 6.962914 86.098693 27.310658 28.094337 -48.288252 -12.424296 15.683565 70.353910 -1.652719 -1.427444 -21.519376 0.000000 -0.000000 0.000000 -28.768070 -9.984997 15.702204 1.248393 5.052331 36.248190 7.119218 -7.123976 -43.420237 0.000000 -0.000000 0.000000 -3.276833 7.459617 16.304095 6.115149 -11.585959 1.302123 2.497448 0.924815 -7.561289 -4.848520 16.104228 0.784268 7.906149 16.594122 4.217359 -7.162540 -33.452763 -9.056156 9.580100 -17.363764 -19.615222 -2.771374 -17.371221 -8.586043 16.346870 -6.450421 41.730022 16.908532 9.126607 6.059282 37.148254 -29.111396 17.452096 132.835177 70.020118 131.374926 6.680165 20.710894 -63.466700 
2.087293 0.249711 0.747846 56.920906 6.949685 86.169469 27.365922 28.249108 -48.309561 -12.463748 15.815893 70.543209 -1.544667 -1.565613 -21.701229 0.000000 -0.000000 0.000000 -28.899144 -10.017054 15.729287 1.281686 5.067998 36.117493 7.120760 -7.114841 -43.385436 0.000000 -0.000000 0.000000 -3.284783 7.445158 16.229579 6.104419 -11.576816 1.311071 2.471181 0.957926 -7.588477 -4.841967 16.102894 0.690697 7.917448 16.581428 4.306175 -7.176508 -33.346083 -9.061297 9.524183 -17.418828 -19.644120 -2.757161 -17.426330 -8.368520 16.329723 -6.388119 41.718222 16.982339 9.023795 6.076334 37.208490 -29.074377 17.419744 132.959448 70.055390 131.654976 6.786666 20.725827 -63.377696 
2.088360 0.250047 0.747367 56.885650 6.957506 86.322780 27.354969 28.338737 -48.424327 -12.455299 15.932308 70.673937 -1.415323 -1.616516 -21.851453 0.000000 -0.000000 0.000000 -28.903921 -9.978296 15.629893 1.302603 5.036747 36.047482 7.110492 -7.196566 -43.340403 0.000000 -0.000000 0.000000 -3.221665 7.403998 16.139601 6.092257 -11.507844 1.114665 2.460188 0.952963 -7.558065 -4.888348 16.058106 0.759534 7.932674 16.665349 4.400944 -7.304206 -33.314173 -9.001193 9.466577 -17.392001 -19.604411 -2.781635 -17.561613 -8.218222 16.303115 -6.340218 41.682323 16.970985 9.002874 6.146070 37.294976 -29.085704 17.407881 132.896749 70.093131 131.627298 6.852608 20.705058 -63.358776 
2.089211 0.250388 0.746999 56.828125 6.955944 86.483142 27.279655 28.411772 -48.583749 -12.404868 15.988098 70.788963 -1.310792 -1.600753 -21.954435 0.000000 -0.000000 0.000000 -28.917550 -10.005529 15.490535 1.292287 5.070434 35.971977 7.100247 -7.248918 -43.307745 0.000000 -0.000000 0.000000 -3.177505 7.424726 16.094546 6.092244 -11.417748 0.824164 2.466090 0.931258 -7.449337 -4.923316 16.050825 0.818575 7.956220 16.720776 4.453996 -7.337223 -33.317100 -8.942434 9.446689 -17.337311 -19.548289 -2.912479 -17.586106 -7.811937 16.169924 -6.365676 41.766007 16.927494 9.011215 6.209024 37.388801 -29.067893 17.375949 132.815099 70.093847 131.596953 6.845932 20.747487 -63.398017 
2.089889 0.250820 0.746680 56.712437 6.933204 86.472832 27.303220 28.439035 -48.568596 -12.407443 16.033716 70.946368 -1.335770 -1.556260 -22.072139 0.000000 -0.000000 0.000000 -29.014690 -10.016717 15.465659 1.264810 5.173566 35.941361 7.109033 -7.233838 -43.315828 0.000000 -0.000000 0.000000 -3.136040 7.468778 16.131106 6.051284 -11.380723 0.877779 2.457537 0.934959 -7.474889 -4.917590 16.051607 0.809885 7.954205 16.712136 4.409209 -7.358689 -33.336314 -8.913031 9.539027 -17.164131 -19.517487 -2.944708 -17.662078 -7.789488 16.111051 -6.310306 41.597282 16.968080 9.108716 6.231090 37.359787 -28.997071 17.394600 132.961431 70.093299 131.812281 6.955964 20.717704 -63.147411 
